<?xml version="1.0" encoding="UTF-8" standalone="no"?>
<!DOCTYPE svg PUBLIC "-//W3C//DTD SVG 1.1//EN" "http://www.w3.org/Graphics/SVG/1.1/DTD/svg11.dtd">
<svg width="100%" height="100%" viewBox="0 0 736 736" version="1.1" xmlns="http://www.w3.org/2000/svg" xmlns:xlink="http://www.w3.org/1999/xlink" xml:space="preserve" xmlns:serif="http://www.serif.com/" style="fill-rule:evenodd;clip-rule:evenodd;stroke-linecap:square;stroke-miterlimit:1.5;">
    <g transform="matrix(1.00988,0,0,1.00421,-0.103837,0.960391)">
        <rect x="10.51" y="9.418" width="708.531" height="713.297" style="fill:none;stroke:#d8d8d8;stroke-width:9.43px;"/>
    </g>
    <g transform="matrix(1.0221,0,0,1.01626,-0.220994,-6.37398)">
        <path d="M12.065,395.936L91,531.016L183.173,570L9.022,638.984L99.043,537.968" style="fill:none;stroke:#d8d8d8;stroke-width:9.32px;"/>
    </g>
    <path d="M383,274L351,431L239,541" style="fill:none;stroke:#d8d8d8;stroke-width:9.5px;"/>
    <path d="M16,634L132,549L384,271L624,634" style="fill:none;stroke:#d8d8d8;stroke-width:9.5px;"/>
    <path d="M380,453L552.454,724.21L551,724" style="fill:none;stroke:#d8d8d8;stroke-width:9.5px;"/>
    <path d="M379,453L104,628L13,724" style="fill:none;stroke:#d8d8d8;stroke-width:9.5px;"/>
    <path d="M381,281L166,562" style="fill:none;stroke:#d8d8d8;stroke-width:9.5px;"/>
    <path d="M503,446L634,352L722,438" style="fill:none;stroke:#d8d8d8;stroke-width:9.5px;"/>
    <path d="M634,355L591,420L521,474" style="fill:none;stroke:#d8d8d8;stroke-width:9.5px;"/>
    <path d="M671,392L664,542L619,621" style="fill:none;stroke:#d8d8d8;stroke-width:9.5px;"/>
    <path d="M674,393L725,652" style="fill:none;stroke:#d8d8d8;stroke-width:9.5px;"/>
    <path d="M704,561L627,635" style="fill:none;stroke:#d8d8d8;stroke-width:9.5px;"/>
    <path d="M47,724L106,629L475,508L723,722" style="fill:none;stroke:#d8d8d8;stroke-width:9.5px;"/>
    <path d="M400,721L486,619L282,722L189,604" style="fill:none;stroke:#d8d8d8;stroke-width:9.5px;"/>
    <path d="M470,513L541,704" style="fill:none;stroke:#d8d8d8;stroke-width:9.5px;"/>
    <path d="M482,625L339,723" style="fill:none;stroke:#d8d8d8;stroke-width:9.5px;"/>
    <path d="M104,631L94,724" style="fill:none;stroke:#d8d8d8;stroke-width:9.5px;"/>
</svg>
