<?xml version="1.0" encoding="UTF-8" standalone="no"?>
<!DOCTYPE svg PUBLIC "-//W3C//DTD SVG 1.1//EN" "http://www.w3.org/Graphics/SVG/1.1/DTD/svg11.dtd">
<svg width="100%" height="100%" viewBox="0 0 171 103" version="1.1" xmlns="http://www.w3.org/2000/svg" xmlns:xlink="http://www.w3.org/1999/xlink" xml:space="preserve" xmlns:serif="http://www.serif.com/" style="fill-rule:evenodd;clip-rule:evenodd;stroke-linecap:square;stroke-miterlimit:1.5;">
    <g id="Artboard3" transform="matrix(0.929348,0,0,0.895652,-68.7717,-158.53)">
        <rect x="74" y="177" width="145" height="115" style="fill:none;"/>
        <g transform="matrix(0.851007,0,0,0.892443,44.7315,156.857)">
            <g transform="matrix(0.540068,0,0,0.555461,-28.7254,-43.8751)">
                <g>
                    <g>
                        <g transform="matrix(0.835693,0,0,1.23077,31.3117,-42.5852)">
                            <path d="M200,192L495,192" style="fill:none;stroke:white;stroke-width:12.64px;"/>
                        </g>
                        <g transform="matrix(0.835693,0,0,1.23077,31.3117,-0.692308)">
                            <path d="M200,192L495,192" style="fill:none;stroke:white;stroke-width:12.64px;"/>
                        </g>
                        <g transform="matrix(0.835693,0,0,1.23077,31.3117,41.2005)">
                            <path d="M200,192L495,192" style="fill:none;stroke:white;stroke-width:12.64px;"/>
                        </g>
                    </g>
                </g>
            </g>
            <g transform="matrix(0.799066,0,0,0.836516,27.8341,32.6264)">
                <rect x="25" y="2" width="237" height="126" style="fill:rgb(235,235,235);fill-opacity:0;stroke:white;stroke-width:8.97px;"/>
            </g>
        </g>
    </g>
</svg>
