<?xml version="1.0" encoding="UTF-8" standalone="no"?>
<!DOCTYPE svg PUBLIC "-//W3C//DTD SVG 1.1//EN" "http://www.w3.org/Graphics/SVG/1.1/DTD/svg11.dtd">
<svg width="100%" height="100%" viewBox="0 0 149 104" version="1.1" xmlns="http://www.w3.org/2000/svg" xmlns:xlink="http://www.w3.org/1999/xlink" xml:space="preserve" xmlns:serif="http://www.serif.com/" style="fill-rule:evenodd;clip-rule:evenodd;stroke-linecap:square;stroke-miterlimit:1.5;">
    <g id="Artboard4" transform="matrix(1,0,0,1,-23,0)">
        <rect x="23" y="0" width="149" height="104" style="fill:none;"/>
        <g transform="matrix(0.482077,0,0,0.580078,28.804,1.53319)">
            <g transform="matrix(0.384664,0,0,0.555461,18.748,-43.8751)">
                <g>
                    <g>
                        <g transform="matrix(0.835693,0,0,1.23077,31.3117,-42.5852)">
                            <path d="M200,192L495,192" style="fill:none;stroke:white;stroke-width:8.3px;"/>
                        </g>
                        <g transform="matrix(0.835693,0,0,1.23077,31.3117,-0.692308)">
                            <path d="M200,192L495,192" style="fill:none;stroke:white;stroke-width:8.3px;"/>
                        </g>
                        <g transform="matrix(0.835693,0,0,1.23077,31.3117,41.2005)">
                            <path d="M200,192L495,192" style="fill:none;stroke:white;stroke-width:8.3px;"/>
                        </g>
                    </g>
                </g>
            </g>
            <g transform="matrix(0.799066,0,0,0.836516,27.8341,32.6264)">
                <rect x="25" y="2" width="237" height="126" style="fill:rgb(235,235,235);fill-opacity:0;stroke:white;stroke-width:5.71px;"/>
            </g>
        </g>
    </g>
</svg>
